<?xml version="1.0" encoding="utf-8"?>
<!-- Generator: Adobe Illustrator 27.4.0, SVG Export Plug-In . SVG Version: 6.00 Build 0)  -->
<svg version="1.1" id="Layer_1" xmlns="http://www.w3.org/2000/svg" xmlns:xlink="http://www.w3.org/1999/xlink" x="0px" y="0px"
	 viewBox="0 0 100.6 100.6" style="enable-background:new 0 0 100.6 100.6;" xml:space="preserve">
<style type="text/css">
	.st0{fill:#FFFFFF;}
	.st1{fill:#A0935A;}
</style>
<rect x="0" y="-0.4" class="st0" width="101" height="101"/>
<g>
	<g>
		<path class="st1" d="M19.3,79.9c2.3-2.9,4.5-5.9,6.8-8.8c0.2-0.3,0.6-0.5,0.9-0.6c3.8-0.3,7.4-1.7,10.9-2.9
			c4.2-1.5,7.8-0.5,10.9,2.6c0.1,0.1,0.2,0.2,0.3,0.3c0.1,0,0.1-0.1,0.2-0.1c-0.5-0.7-1-1.5-1.5-2.2c-1.5-1.8-3.3-3.1-5.8-3.2
			c-1.5-0.1-2.9,0.3-4.3,0.9c-2.6,1-5.2,1.9-8,2.3c-0.7,0.1-1.3,0.2-2,0.3c-0.8,0.1-1.4-0.4-1.5-1.1c-0.1-0.6,0.4-1.2,1.1-1.4
			c1.3-0.2,2.6-0.3,3.9-0.7c1.9-0.5,3.8-1.2,5.7-1.8c1.6-0.6,3.3-1.1,5.1-1c3,0.2,5.4,1.5,7.4,3.8c0.5,0.5,0.9,1.1,1.3,1.7
			c0.4-0.5,0.8-1.1,1.3-1.6c2.4-2.7,5.3-4.2,9-3.7c1.2,0.2,2.3,0.5,3.4,0.9c2,0.6,3.9,1.3,5.9,1.9c0.8,0.3,1.2,0.9,1.1,1.5
			c-0.2,0.7-0.9,1.1-1.7,0.8c-2.2-0.7-4.4-1.4-6.6-2.2c-4.5-1.6-7.8,0.1-10.3,3.7c-0.3,0.4-0.5,0.8-0.6,1.2c0.7-0.6,1.5-1.3,2.3-1.8
			c2.7-1.8,5.7-2.1,8.8-1.1c1.4,0.4,2.8,1,4.2,1.5c2.2,0.8,4.4,1.2,6.7,1.4c0.5,0.1,1,0.3,1.3,0.7c2.1,2.7,4.2,5.5,6.3,8.2
			c0.1,0.2,0.3,0.4,0.4,0.5c0,0.5,0,1.1,0,1.6c-20.9,0-41.8,0-62.7,0C19.3,81,19.3,80.4,19.3,79.9z M49.3,79.1
			c0.3-2.4,0.2-4.6-1.6-6.4c-0.3-0.3-0.5-0.6-0.8-0.9c-1.8-1.7-3.9-2.7-6.4-2.3c-1.2,0.2-2.3,0.5-3.4,0.9c-2.9,1.2-5.9,2-9,2.4
			c-0.2,0-0.5,0.2-0.6,0.4c-1.4,1.8-2.8,3.6-4.1,5.4c-0.1,0.1-0.2,0.3-0.3,0.4c0.8,0,1.5-0.1,2.2-0.1c3.2-0.2,6.4-0.6,9.4-1.6
			c1.6-0.5,3.2-1.2,4.8-1.7c1.3-0.5,2.7-0.5,4,0.1c1.2,0.6,2,1.6,2.6,2.8c0.1,0.2,0.3,0.4,0.5,0.4C47.5,79.1,48.4,79.1,49.3,79.1z
			 M51.9,79.1c0.9,0,1.7,0,2.5,0c0.4,0,0.7-0.1,0.9-0.5c1.4-2.9,3.7-3.9,6.8-2.8c1.4,0.5,2.7,1,4.1,1.5c3,1,6.2,1.5,9.4,1.7
			c0.9,0.1,1.8,0,2.7,0c-1.2-1.5-2.4-3-3.5-4.6c-0.7-1-1.5-1.6-2.9-1.8c-2.9-0.3-5.5-1.3-8.2-2.4c-1.8-0.7-3.6-1.1-5.5-0.6
			c-2.4,0.6-4.1,2.2-5.4,4.2c-0.4,0.6-0.8,1.2-0.9,1.8C51.8,76.7,51.9,77.8,51.9,79.1z M43.4,79c-0.5-1-1.4-1.5-2.4-1.2
			c-1.2,0.3-2.3,0.7-3.5,1.1c0,0,0,0.1,0,0.1C39.5,79,41.5,79,43.4,79z M63.7,79c0-0.1,0-0.1,0-0.2c-1.2-0.4-2.4-0.8-3.6-1.1
			c-0.9-0.2-1.9,0.4-2.2,1.3C59.8,79,61.7,79,63.7,79z"/>
	</g>
	<g>
		<path class="st1" d="M69.4,18.8c0.9,0.6,0.9,0.9,0.7,2c-1.7,6.4-3.4,12.8-5.1,19.1c-0.2,0.6-0.5,1.1-1.1,1.4
			c0.5,0.6,0.5,1.2,0.3,1.9c-0.6,2.4-1.1,4.8-2.1,7.1c-1,2.2-2.3,4.1-4.4,5.4c-1.3,0.8-2.8,1.2-4.3,1.2c-0.5,0-0.7,0.2-0.8,0.7
			c-0.2,2.2-0.5,4.4-0.7,6.6c-0.1,0.9-0.6,1.4-1.4,1.3c-0.7-0.1-1.2-0.7-1.1-1.6c0.3-2.4,0.5-4.9,0.8-7.3c-0.4-0.2-0.7-0.3-1.1-0.5
			C47,55,46,53.1,45.5,50.9c-0.2-1.1-0.1-1.5,0.9-2c0,0,0-0.1,0-0.1c-1.5-1-1.1-2.5-0.8-3.8c0.5-2.1,1.2-4.1,1.9-6.2
			c0.3-0.8,0.6-1,1.5-1c0.6,0,1.1,0,1.7,0c0,0,0.1,0,0.1-0.1c-0.2-1.1-0.3-2.1-0.5-3.2c-0.1-0.6-0.1-1.1,0.2-1.6
			c2.4-3.9,5.2-7.4,9-10.1c2.6-1.9,5.5-3.4,8.7-3.9c0.1,0,0.2-0.1,0.3-0.1C68.7,18.8,69.1,18.8,69.4,18.8z M61.6,43.5
			c-0.6,0-1,0-1.5-0.1c-0.8-0.1-1.2-0.4-1.3-1c-0.1-0.5,0.1-1.1,0.8-1.4c0.8-0.5,1.7-1,2.6-1.4c0.4-0.2,0.6-0.5,0.7-0.9
			c0.8-3.3,1.7-6.5,2.5-9.8c0.3-1.2,0.6-2.3,0.9-3.5c-3.5,4.2-6.3,8.7-8.5,13.6c-2.2,4.9-3.8,10.1-4.7,15.4c2.1,0,3.9-0.9,5.2-2.5
			C60.2,49.5,60.9,46.5,61.6,43.5z M50.6,54.2c2.1-12,7-22.5,14.7-31.9c-1.1,0.5-2.1,0.9-3,1.5c-4,2.5-7,6-9.5,10
			c-0.1,0.2-0.1,0.4-0.1,0.6c0.2,1.4,0.5,2.7,0.6,4.1c0.2,1.2-0.3,1.7-1.5,1.7c-0.7,0-1.3,0-2,0c-0.2,0-0.4,0.1-0.4,0.3
			c-0.7,1.9-1.3,3.8-1.5,5.8c0,0.2,0.1,0.5,0.3,0.7c0.7,0.7,1.4,1.5,2.1,2.2c0.4,0.4,0.5,0.9,0.3,1.4c-0.2,0.5-0.7,0.7-1.2,0.7
			c-0.4,0-0.7,0-1.1,0C48.6,52.7,49.3,53.6,50.6,54.2z"/>
	</g>
	<g>
		<path class="st1" d="M75.1,67.2c0,0.6-0.6,1.2-1.2,1.2c-0.7,0-1.2-0.6-1.2-1.3c0-0.7,0.6-1.2,1.3-1.2C74.6,66,75.1,66.5,75.1,67.2
			z"/>
	</g>
</g>
</svg>
