<?xml version="1.0" encoding="utf-8"?>
<!-- Generator: Adobe Illustrator 27.4.0, SVG Export Plug-In . SVG Version: 6.00 Build 0)  -->
<svg version="1.1" id="Layer_1" xmlns="http://www.w3.org/2000/svg" xmlns:xlink="http://www.w3.org/1999/xlink" x="0px" y="0px"
	 viewBox="0 0 100.6 100.6" style="enable-background:new 0 0 100.6 100.6;" xml:space="preserve">
<style type="text/css">
	.st0{fill:#FFFFFF;}
	.st1{fill:#77997B;}
</style>
<rect x="0" y="-0.4" class="st0" width="101" height="101"/>
<g>
	<path class="st1" d="M78.1,37.1c-2-1.2-4.1-1.1-6,0.1c-3.1,1.9-6.2,3.8-9.3,5.7c-0.2,0.1-0.4,0.2-0.6,0.2c-0.9,0-1.7-0.2-2.6-0.2
		c-2,0-4.1,0-6.1,0c-0.5-1.2-0.4-1.2,0.3-2.1c0.8-0.9,1.5-1.9,2.1-3c1.1-2.1,1.4-4.4,1.5-6.7c0.1-1.3,0-2.7,0-4
		c0-0.6,0.2-0.8,0.7-0.9c0.7-0.1,1.5-0.4,2.2-0.6c0.5-0.1,0.7-0.5,0.7-1c0-0.5-0.3-0.8-0.7-0.9c-0.2-0.1-0.3-0.1-0.5-0.1
		c-3.5-0.9-7.1-1.9-10.6-2.8c-0.5-0.1-1-0.1-1.5,0c-1.2,0.3-2.3,0.6-3.5,0.9c-2.5,0.7-4.9,1.3-7.4,2c-0.3,0.1-0.7,0.4-0.8,0.7
		c-0.2,0.4,0,0.8,0.4,1.1c0.2,0.2,0.3,0.4,0.3,0.7c0,2.8,0,5.5,0,8.3c0,0.6-0.1,1-0.7,1.2c-0.4,0.2-0.8,0.5-0.8,1c0,1.5,0,3.1,0,4.6
		c0,0.8,0.9,1.2,1.5,0.7c0.3-0.2,0.6-0.4,0.9-0.7c0.2,0.2,0.5,0.3,0.7,0.5c0.4,0.3,0.8,0.4,1.3,0.2c0.4-0.2,0.5-0.7,0.5-1.1
		c0-1.3,0-2.5,0-3.8c0-0.8-0.2-1.3-1-1.6c-0.5-0.2-0.6-0.5-0.6-1c0-2.6,0-5.2,0-7.7c0-0.2,0-0.4,0-0.7c0.4,0.1,0.7,0.2,1,0.3
		c0,0.4,0,0.8,0,1.2c0.1,2,0,4,0.3,6.1c0.3,2.9,1.4,5.6,3.7,7.6c0.5,0.5,0,0.9,0,1.4c0,0.1-0.4,0.2-0.6,0.3c-2,0-4.1,0-6.1,0
		c-1.6,0-2.6,1-2.7,2.7c0,0.3,0,0.7,0,1c-2.3,0.4-4.2,1.4-5.4,3.4c-2.9,4.9-5.7,9.8-8.5,14.7c-1.6,2.9-1,6.8,1.2,9.2
		c1.5,1.5,3.3,2.3,5.4,2.3c2.9,0,5.8,0,8.8,0c0,1.2,0,2.3,0,3.4c0,1.1,0.3,1.4,1.4,1.4c7.8,0,15.6,0,23.4,0c1.2,0,1.5-0.3,1.5-1.5
		c0-7.5,0-14.9,0-22.4c0-0.4,0.1-0.7,0.5-0.9c1.8-1,3.5-2,5.3-3.1c3.4-2,6.7-3.9,10.1-5.8c1.9-1.1,3.1-2.8,3.1-5
		C81.1,40.1,80.1,38.2,78.1,37.1z M38.1,39.1c-0.4,0-0.7,0-1,0c0-0.6,0-1.1,0-1.6c0-0.2,0.3-0.5,0.5-0.4c0.2,0,0.5,0.3,0.5,0.5
		C38.2,38,38.1,38.5,38.1,39.1z M59.9,47c0,8.9,0,17.9,0,26.8c-1.4,0-2.7,0-4.2,0c0-8.5,0-16.9,0-25.3c0.7-0.2,1.5-0.3,2.2-0.6
		C58.6,47.8,59.2,47.4,59.9,47z M59.4,44.9c-1.5,1.2-3.1,1.8-5.1,1.6c-0.1-0.5-0.3-1-0.4-1.6C55.8,44.9,57.5,44.9,59.4,44.9z
		 M41.1,24.5c1.1-0.3,2.2-0.6,3.3-0.9c1.2-0.3,2.4-0.7,3.6-1c0.3-0.1,0.5-0.1,0.8,0c2.4,0.6,4.7,1.3,7.1,2c-0.2,0.1-0.3,0.1-0.5,0.2
		c-2.1,0.6-4.2,1.2-6.4,1.7c-0.2,0.1-0.5,0.1-0.8,0.1c-2.4-0.6-4.8-1.3-7.1-1.9C41.1,24.6,41.1,24.6,41.1,24.5z M41.6,30.8
		c0-1.3,0-2.5,0-3.9c1.3,0.3,2.6,0.5,3.7,1c2.3,1,4.6,0.7,6.8-0.1c1-0.4,2.1-0.6,3.3-0.9c0,1,0,1.8,0,2.7c0,1.5,0,1.5-1.5,1.8
		c-1.4,0.3-2.8,0.5-4.2,0.7c-1.9,0.3-3.7-0.2-5.5-0.5c-0.7-0.1-1.5-0.3-2.2-0.5C41.8,31.1,41.6,30.9,41.6,30.8z M41.8,33.3
		c2.3,0.3,4.5,0.9,6.7,0.9c2.2,0,4.4-0.6,6.6-0.9c-0.4,2.7-1.3,5.3-3.7,6.9c-1.9,1.3-3.9,1.3-5.8,0.1C43.1,38.7,42.2,36.1,41.8,33.3
		z M52.3,46.5c-2.6,0-5.1,0-7.6,0c0.3-1.3,0.6-2.6,1-4c1.9,0.8,3.8,0.8,5.7,0C51.6,43.9,51.9,45.1,52.3,46.5z M36.2,45.4
		c0-0.2,0.3-0.5,0.4-0.5c2.1,0,4.2,0,6.4,0c-0.1,0.5-0.2,1-0.3,1.4c0,0.1-0.2,0.2-0.3,0.2c-2,0-4.1,0-6.2,0
		C36.1,46.1,36.1,45.7,36.2,45.4z M41.9,48.5c0,5.6,0,11.2,0,16.8c-1.4,0-2.7,0-4.1,0c0-5.6,0-11.2,0-16.8
		C39.1,48.5,40.5,48.5,41.9,48.5z M26.8,74.2c-3,0-5.4-2.4-5.4-5.4c0-1.4,0.3-2.6,1-3.8c2.6-4.5,5.2-9,7.8-13.6
		c1.2-2.1,3.2-3.1,5.5-2.8c0,1.7-0.1,3.3,0,5c0.1,1.6-0.3,3-1,4.3c-1.4,2.5-2.7,5.1-4,7.6c-0.6,1.2-0.2,1.8,1.1,1.8
		c3.4,0,6.7,0,10.1,0c1.1,0,2,0.4,2.8,1c1.4,1.1,1,4.1-0.2,4.9c-0.8,0.5-1.6,0.9-2.6,0.9C37,74.2,31.9,74.2,26.8,74.2z M35.7,60.5
		c0,1.6,0,3.2,0,4.8c-0.8,0-1.7,0-2.6,0c0.9-1.7,1.7-3.3,2.5-4.9C35.6,60.5,35.6,60.5,35.7,60.5z M60,79c-7.4,0-14.8,0-22.2,0
		c0-0.9,0-1.8,0-2.8c0.5,0,0.9,0,1.4,0c1.3,0,2.6,0.1,3.9-0.1c4.2-0.6,5.2-4.3,4.4-7.2c-0.4-1.5-1.7-2.4-3-3
		c-0.3-0.1-0.4-0.3-0.4-0.6c0-5.4,0-10.9,0-16.3c0-0.1,0-0.2,0-0.3c3.3,0,6.5,0,9.8,0c0,0.3,0,0.5,0,0.8c0,8.3,0,16.7,0,25
		c0,1.4,0.2,1.6,1.6,1.6c1.5,0,3.1,0,4.6,0C60,77,60,78,60,79z M77,45.6c-2.4,1.4-4.8,2.8-7.2,4.2c-2.4,1.4-4.9,2.8-7.3,4.2
		c-0.2,0.1-0.4,0.2-0.6,0.3c0-2.8,0-5.5,0-8.3c0-0.2,0.2-0.4,0.3-0.5c3.6-2.3,7.3-4.5,10.9-6.8c1.8-1.1,4.2-0.4,5.3,1.4
		C79.6,42.1,79,44.4,77,45.6z"/>
</g>
</svg>
