<?xml version="1.0" encoding="utf-8"?>
<!-- Generator: Adobe Illustrator 27.4.0, SVG Export Plug-In . SVG Version: 6.00 Build 0)  -->
<svg version="1.1" id="Layer_1" xmlns="http://www.w3.org/2000/svg" xmlns:xlink="http://www.w3.org/1999/xlink" x="0px" y="0px"
	 viewBox="0 0 100.6 100.6" style="enable-background:new 0 0 100.6 100.6;" xml:space="preserve">
<style type="text/css">
	.st0{fill:#FFFFFF;}
	.st1{fill:#777B7D;}
</style>
<rect x="0" y="-0.4" class="st0" width="101" height="101"/>
<g>
	<g>
		<path class="st1" d="M62.3,62.3c6-3.7,11.9-7.4,17.8-11.2c0.3-0.2,0.6-0.5,0.9-0.8c0-0.2,0-0.4,0-0.6c-0.3-0.2-0.5-0.6-0.8-0.7
			c-11.9-7.5-23.9-15-35.8-22.6c-0.6-0.4-1.1-0.4-1.7,0c-6.2,3.9-12.4,7.8-18.6,11.8c-2.8,1.8-4.5,4.4-4.9,7.6
			c-0.6,4.6,1.2,8.3,5,10.8c9.2,5.9,18.5,11.7,27.8,17.5c0.2,0.1,0.4,0.2,0.6,0.3c0.5,0.2,0.9,0,1.2-0.4c0.3-0.4,0.3-0.9-0.1-1.3
			c-0.2-0.2-0.4-0.3-0.6-0.5C43.8,66.5,34.7,60.7,25.5,55c-2.3-1.5-3.7-3.6-4.2-6.2c-0.7-3.2,1.1-7.1,4.1-8.9
			c5.9-3.7,11.9-7.5,17.8-11.2c0.4-0.3,0.7-0.2,1.1,0c11.1,7,22.2,14,33.3,21c0.2,0.1,0.4,0.2,0.6,0.4c-0.2,0.2-0.4,0.3-0.6,0.4
			c-5.4,3.4-10.9,6.9-16.3,10.3c-1.3,0.8-2.4,1.8-3.3,3c-1.6,2.2-2.5,4.6-2.4,7.3c0.2,2.3,1.8,3.8,3.9,3.5c0.8-0.1,1.6-0.5,2.3-0.9
			c5.4-3.4,10.9-6.8,16.3-10.2c0.8-0.5,1.5-1.3,2-2c0.5-0.7,0.7-1.6,1-2.4c0-0.4,0-0.9,0-1.3c-0.1-0.1-0.1-0.3-0.2-0.4
			c-0.5-1.4-1.8-2-3.2-1.4c-0.3,0.1-0.6,0.3-0.9,0.5c-5.5,3.4-10.9,6.9-16.4,10.3c-0.9,0.5-1.1,1.1-0.7,1.7c0.4,0.6,0.9,0.6,1.8,0
			c5.4-3.4,10.9-6.8,16.3-10.3c0.3-0.2,0.6-0.3,1.1-0.6c0,0.5,0.1,0.9,0,1.3c-0.3,1.2-0.9,2.2-2,2.9c-5.4,3.4-10.8,6.8-16.2,10.2
			c-0.4,0.3-0.9,0.5-1.3,0.6c-0.9,0.3-1.5-0.1-1.8-1c-0.3-1.1-0.2-2.2,0.2-3.3C58.6,65.6,60.1,63.7,62.3,62.3z"/>
	</g>
	<g>
		<path class="st1" d="M38.7,37c-2.8,1.8-5.6,3.5-8.3,5.3c-0.7,0.5-0.7,1.3,0,1.8c3.3,2.1,6.7,4.2,10,6.2c0.3,0.2,0.9,0.2,1.2,0
			c0.8-0.4,1.4-0.9,2.1-1.4c0.5-0.4,0.7-1,0.4-1.5c-0.3-0.5-0.9-0.6-1.4-0.2c-0.4,0.2-0.8,0.5-1.2,0.8c-0.3,0.2-0.5,0.2-0.9,0
			c-2.4-1.5-4.8-3-7.3-4.5c-0.1-0.1-0.3-0.2-0.5-0.3c2.1-1.3,4.2-2.6,6.2-3.9c0.3-0.2,0.5-0.1,0.8,0.1c2.4,1.5,4.8,3,7.2,4.5
			c0.1,0.1,0.2,0.2,0.4,0.3c-0.3,0.2-0.6,0.4-0.8,0.5c-0.6,0.4-0.7,1-0.4,1.5c0.3,0.5,0.9,0.6,1.5,0.2c0.7-0.4,1.4-0.9,2.1-1.3
			c0.8-0.5,0.8-1.3,0-1.9c-3.2-2-6.5-4.1-9.7-6.1C39.6,36.7,39.2,36.7,38.7,37z"/>
	</g>
	<g>
		<path class="st1" d="M26.4,45.6c-0.3,0.5-0.1,1.1,0.5,1.5c0.1,0.1,0.2,0.1,0.3,0.2c8.1,5,16.1,10,24.2,15c0.2,0.1,0.4,0.2,0.6,0.3
			c0.7,0.2,1.3-0.2,1.4-0.9c0-0.6-0.4-0.8-0.8-1.1c-6.7-4.1-13.3-8.3-20-12.4c-1.5-0.9-3-1.9-4.5-2.8C27.3,45,26.7,45.1,26.4,45.6z"
			/>
	</g>
	<g>
		<path class="st1" d="M66.9,50.9c0.7,0.2,1.3-0.2,1.3-1c0-0.5-0.3-0.7-0.7-1c-7.7-4.8-15.3-9.7-23-14.5c-0.1-0.1-0.2-0.1-0.3-0.2
			c-0.5-0.3-1.1-0.1-1.4,0.3c-0.3,0.5-0.2,1,0.3,1.4c0.1,0.1,0.3,0.2,0.4,0.3c7.6,4.8,15.2,9.6,22.8,14.3
			C66.5,50.7,66.7,50.8,66.9,50.9z"/>
	</g>
	<g>
		<path class="st1" d="M55.8,58.6c0.3-0.5,0.2-1-0.3-1.4c-0.1,0-0.1-0.1-0.2-0.1c-3.2-2-6.4-4-9.6-6c-0.2-0.1-0.5-0.2-0.6-0.3
			c-0.7,0-1.1,0.4-1.1,1c0,0.5,0.3,0.8,0.7,1.1c2.2,1.4,4.5,2.8,6.7,4.2c1,0.6,2,1.3,3.1,1.9C54.9,59.3,55.5,59.1,55.8,58.6z"/>
	</g>
	<g>
		<path class="st1" d="M49.8,48.4c-0.2-0.1-0.5-0.2-0.9-0.4c-0.3,0.2-0.6,0.4-0.8,0.7c-0.3,0.5-0.1,1,0.6,1.4
			c2.2,1.4,4.4,2.8,6.7,4.2c1,0.6,2,1.3,3,1.9c0.8,0.5,1.6,0.1,1.6-0.7c0-0.5-0.3-0.8-0.7-1.1C56.2,52.4,53,50.4,49.8,48.4z"/>
	</g>
	<g>
		<path class="st1" d="M64,53.2c0.4-0.5,0.2-1.1-0.5-1.6c-3.2-2-6.3-4-9.5-6c-0.2-0.1-0.5-0.2-0.6-0.3c-0.7,0-1.2,0.5-1.1,1
			c0.1,0.4,0.3,0.8,0.7,1c3.2,2,6.3,4,9.5,6C63,53.8,63.6,53.8,64,53.2z"/>
	</g>
</g>
</svg>
