<?xml version="1.0" encoding="utf-8"?>
<!-- Generator: Adobe Illustrator 27.4.0, SVG Export Plug-In . SVG Version: 6.00 Build 0)  -->
<svg version="1.1" id="Layer_1" xmlns="http://www.w3.org/2000/svg" xmlns:xlink="http://www.w3.org/1999/xlink" x="0px" y="0px"
	 viewBox="0 0 100.6 100.6" style="enable-background:new 0 0 100.6 100.6;" xml:space="preserve">
<style type="text/css">
	.st0{fill:#FFFFFF;}
	.st1{fill:#6296B7;}
</style>
<rect x="0" y="-0.4" class="st0" width="101" height="101"/>
<g>
	<g>
		<path class="st1" d="M72.1,55.8c0,0.3,0,0.5,0,0.8c0,7,0,14,0,21c0,2.9-1.7,4.6-4.6,4.6c-10.3,0-20.5,0-30.8,0
			c-2.9,0-4.7-1.7-4.7-4.7c0-7,0-14,0-21c0-0.3,0-0.5,0-0.8c-2.2-0.7-3.7-2-4.1-4.3c-0.4-2.3,0.5-4.1,2.4-5.4
			c-2.1-3.7-4.2-7.3-6.4-11.1c-0.3,0.2-0.7,0.4-1,0.6c-0.5,0.4-0.6,0.9-0.2,1.6c1.5,2.7,3.1,5.3,4.6,8c0.1,0.2,0.3,0.4,0.3,0.6
			c0.2,0.5,0,1-0.4,1.2c-0.5,0.3-0.9,0.2-1.3-0.2c-0.2-0.2-0.3-0.4-0.4-0.6c-1.5-2.6-3-5.2-4.5-7.8c-1.2-2-0.7-3.7,1.3-4.9
			c0.2-0.1,0.3-0.2,0.5-0.3c-0.2-0.3-0.4-0.7-0.5-1c-0.8-1.6-0.7-3.2,0.4-4.6c0.3-0.4,0.3-0.6,0-0.9c-0.5-0.7-0.9-1.5-1.3-2.3
			c-0.6-1.2-0.3-2.3,0.8-3c1.2-0.7,2.3-1.4,3.5-2c1.2-0.7,2.3-0.3,3,0.8c0.5,0.8,0.9,1.5,1.3,2.3c0.2,0.3,0.3,0.4,0.7,0.4
			c2-0.3,3.5,0.5,4.5,2.3c2.9,5.1,5.9,10.2,8.9,15.3c0.1,0.2,0.2,0.4,0.5,0.6c0-0.2,0-0.5,0-0.7c0-3.4,0-6.9,0-10.3
			c0-0.5,0.2-1,0.4-1.4c1.9-2.6,3.9-5.2,5.8-7.8c0.8-1.1,1.5-1.1,2.3,0c1.8,2.4,3.6,4.9,5.5,7.3c0.6,0.7,0.8,1.5,0.8,2.4
			c-0.1,1.1,0,2.2,0.1,3.3c0.1-0.2,0.2-0.4,0.4-0.6c1.9-3.3,3.8-6.6,5.7-9.9c1.5-2.5,3.8-3.2,6.4-1.7c2.2,1.3,4.4,2.6,6.7,3.9
			c2.4,1.4,3,3.8,1.7,6.1c-2.5,4.4-5.1,8.8-7.6,13.2c-0.1,0.2-0.2,0.4-0.4,0.6c2.6,1,4.1,2.8,3.9,5.6C76,53.6,74.5,55.1,72.1,55.8z
			 M34.1,56c0,0.3,0,0.5,0,0.8c0,7,0,13.9,0,20.9c0,1.8,0.8,2.6,2.6,2.6c10.3,0,20.5,0,30.8,0c1.8,0,2.5-0.8,2.5-2.5c0-7,0-14,0-21
			c0-0.2,0-0.5,0-0.7C58,56,46.1,56,34.1,56z M52,47.5c-4.2,0-8.5,0-12.7,0c-2.1,0-4.2,0-6.3,0c-2.1,0-3.5,1.8-3.1,3.9
			c0.3,1.5,1.6,2.5,3.4,2.5c12.5,0,24.9,0,37.4,0c0.2,0,0.3,0,0.5,0c1.3-0.1,2.4-1,2.8-2.2c0.7-2.1-0.9-4.1-3.1-4.1
			C64.6,47.5,58.3,47.5,52,47.5z M66.1,26.8c0.9,0.5,1.8,1,2.6,1.5c0.3,0.2,0.6,0.4,0.6,0.7c0,0.3-0.1,0.9-0.3,1
			c-0.3,0.2-0.9,0.3-1.2,0.1c-0.9-0.4-1.8-1-2.7-1.5c-0.5,0.9-1,1.8-1.6,2.7c0.9,0.5,1.8,1,2.6,1.5c0.7,0.4,0.8,1.2,0.4,1.7
			C66,35,65.5,35,65,34.7c-0.9-0.5-1.7-1-2.6-1.5c-0.5,0.9-1,1.8-1.6,2.7c0.9,0.5,1.7,1,2.6,1.5c0.3,0.2,0.6,0.5,0.6,0.7
			c0,0.3-0.1,0.9-0.3,1c-0.3,0.2-0.9,0.3-1.2,0.1c-0.9-0.4-1.8-1-2.7-1.5c-0.6,0.6-0.3,1.2-0.4,1.9c-0.2,1.1,0.1,2,1.3,2.3
			c0.1,0,0.2,0.1,0.2,0.1c0.5,0.4,0.6,0.9,0.3,1.4c-0.3,0.5-0.8,0.6-1.3,0.5c-0.2-0.1-0.3-0.1-0.5-0.2c0,0.5,0,1,0,1.5
			c0.1,0,0.1,0.1,0.2,0.1c3.3,0,6.6,0,10,0c0.2,0,0.5-0.2,0.6-0.4c1.2-2.1,2.4-4.1,3.6-6.2c1.6-2.7,3.2-5.5,4.7-8.2
			c0.6-1.1,0.4-2.3-0.6-2.9c-2.5-1.5-5-2.9-7.5-4.3c-0.9-0.5-2.1-0.2-2.7,0.7C67.2,24.8,66.6,25.8,66.1,26.8z M44.5,45.4
			c-2.7-4.7-5.4-9.3-8.1-14c-3.1,1.8-6.1,3.5-9.1,5.3c1.6,2.8,3.2,5.6,4.8,8.3c0.1,0.2,0.4,0.3,0.7,0.4c3.3,0,6.6,0,10,0
			C43.3,45.4,43.9,45.4,44.5,45.4z M57.2,45.3c0-4.6,0-9.2,0-13.9c-1.7,0.8-3.4,1.2-5.3,1.2c-1.8,0-3.5-0.5-5.2-1.2
			c0,4.7,0,9.3,0,13.9C50.3,45.3,53.7,45.3,57.2,45.3z M35.4,29.6c-0.8-1.3-1.5-2.6-2.2-3.8c-0.6-0.9-1.7-1.2-2.7-0.7
			c-1.9,1.1-3.8,2.1-5.6,3.3C24,28.9,23.6,30,24,30.8c0.7,1.4,1.5,2.7,2.2,4C29.3,33.1,32.3,31.3,35.4,29.6z M56.8,29.2
			c-0.6-0.8-1.2-1.6-1.8-2.3c-1.1,0.2-2,0.5-3,0.5c-1,0-2-0.3-3.1-0.5c-0.5,0.7-1.1,1.5-1.7,2.3C49.6,31,54.5,31,56.8,29.2z
			 M26.9,21.1c-1.3,0.7-2.4,1.4-3.7,2.1c0.5,0.9,1.1,1.8,1.6,2.7c1.2-0.7,2.4-1.4,3.6-2.1C27.9,22.9,27.4,22,26.9,21.1z M52,22.9
			c-0.6,0.8-1.1,1.4-1.6,2.1c1.1,0.4,2.1,0.4,3.2,0C53.1,24.3,52.6,23.6,52,22.9z"/>
	</g>
	<g>
		<path class="st1" d="M52,60.1c3.4,0,6.9,0,10.3,0c2.1,0,3.4,1.3,3.4,3.4c0,1.3,0,2.6,0,3.9c0,1.9-1.3,3.2-3.2,3.2
			c-7,0-13.9,0-20.9,0c-1.9,0-3.3-1.4-3.3-3.3c0-1.3,0-2.6,0-4c0-2,1.4-3.3,3.3-3.3C45.1,60.1,48.6,60.1,52,60.1z M52,68.6
			c3.4,0,6.9,0,10.3,0c0.9,0,1.3-0.4,1.3-1.3c0-1.2,0-2.5,0-3.7c0-1-0.4-1.3-1.3-1.3c-6.9,0-13.7,0-20.6,0c-0.9,0-1.3,0.4-1.3,1.3
			c0,1.2,0,2.4,0,3.6c0,1.1,0.3,1.5,1.5,1.5C45.2,68.6,48.6,68.6,52,68.6z"/>
	</g>
	<g>
		<path class="st1" d="M52,76c-2,0-4,0-6,0c-0.9,0-1.4-0.4-1.4-1.1c0-0.6,0.5-1,1.3-1c4,0,8,0,12.1,0c0.9,0,1.4,0.4,1.4,1.1
			c0,0.7-0.5,1-1.3,1C56,76,54,76,52,76z"/>
	</g>
</g>
</svg>
